<?xml version="1.0" standalone="no"?>
<!DOCTYPE svg PUBLIC "-//W3C//DTD SVG 20010904//EN"
 "http://www.w3.org/TR/2001/REC-SVG-20010904/DTD/svg10.dtd">
<svg version="1.0" xmlns="http://www.w3.org/2000/svg"
 width="512.000000pt" height="512.000000pt" viewBox="0 0 512.000000 512.000000"
 preserveAspectRatio="xMidYMid meet">

<g transform="translate(0.000000,512.000000) scale(0.100000,-0.100000)"
fill="#000000" stroke="none">
<path d="M2375 4610 c-91 -23 -175 -61 -237 -106 -77 -55 -1237 -1051 -1290
-1107 -26 -28 -63 -80 -82 -116 -69 -132 -66 -74 -66 -1247 0 -1157 -2 -1104
59 -1229 78 -156 231 -275 400 -311 55 -11 297 -14 1407 -14 1303 0 1343 1
1418 20 110 28 190 74 271 155 82 82 138 183 160 290 22 104 22 2076 0 2178
-17 84 -53 162 -102 230 -23 32 -278 257 -683 604 -703 602 -713 610 -884 653
-104 26 -272 26 -371 0z m290 -306 c33 -8 78 -26 100 -39 42 -24 1162 -980
1252 -1068 95 -92 88 -1 88 -1162 0 -1132 4 -1064 -68 -1143 -80 -86 -84 -87
-399 -90 l-278 -3 0 479 c0 300 -4 500 -11 538 -39 213 -219 404 -434 459 -86
22 -624 22 -710 0 -210 -54 -386 -235 -431 -444 -11 -51 -14 -173 -14 -549 l0
-483 -277 3 c-263 3 -280 4 -319 25 -54 29 -102 79 -128 133 -21 45 -21 49
-24 1045 -2 680 1 1016 8 1051 6 28 22 69 36 90 28 42 1233 1081 1300 1120 86
51 205 66 309 38z m221 -2358 c27 -13 66 -42 87 -66 67 -79 67 -79 67 -607 l0
-473 -480 0 -480 0 0 473 c0 528 0 528 67 607 21 24 60 53 87 66 50 23 58 24
326 24 268 0 276 -1 326 -24z"/>
</g>
</svg>
