<?xml version="1.0" standalone="no"?>
<!DOCTYPE svg PUBLIC "-//W3C//DTD SVG 20010904//EN"
 "http://www.w3.org/TR/2001/REC-SVG-20010904/DTD/svg10.dtd">
<svg version="1.0" xmlns="http://www.w3.org/2000/svg"
 width="512.000000pt" height="512.000000pt" viewBox="0 0 512.000000 512.000000"
 preserveAspectRatio="xMidYMid meet">

<g transform="translate(0.000000,512.000000) scale(0.100000,-0.100000)"
fill="#000000" stroke="none">
<path d="M3565 4599 c-305 -44 -577 -250 -707 -536 -81 -180 -105 -421 -60
-606 86 -347 349 -593 717 -668 85 -17 275 -15 363 5 460 102 776 537 723 997
-41 362 -276 654 -616 768 -138 46 -282 60 -420 40z m216 -449 c136 -25 276
-131 342 -259 145 -279 -6 -603 -314 -676 -170 -40 -341 10 -469 136 -183 180
-184 456 -2 651 119 127 275 179 443 148z"/>
<path d="M1342 4580 c-363 -51 -664 -305 -770 -651 -27 -88 -45 -245 -37 -327
42 -423 318 -726 740 -813 97 -20 285 -15 390 10 188 45 379 168 492 316 300
394 234 945 -152 1268 -83 70 -240 150 -346 176 -92 23 -232 33 -317 21z m210
-431 c156 -33 279 -141 334 -295 115 -315 -80 -628 -406 -651 -143 -10 -270
37 -376 139 -188 180 -190 462 -6 660 121 129 286 182 454 147z"/>
<path d="M1345 2340 c-241 -32 -459 -154 -610 -343 -226 -283 -264 -668 -97
-991 207 -402 674 -590 1107 -445 341 114 575 406 616 768 56 493 -309 951
-806 1010 -99 12 -122 12 -210 1z m220 -415 c84 -22 147 -60 209 -125 117
-122 169 -306 135 -472 -52 -252 -309 -414 -562 -354 -93 22 -155 56 -230 126
-280 261 -164 725 206 825 70 18 170 18 242 0z"/>
<path d="M3585 2340 c-241 -32 -459 -154 -610 -343 -226 -283 -264 -668 -97
-991 207 -402 674 -590 1107 -445 341 114 575 406 616 768 56 493 -309 951
-806 1010 -99 12 -122 12 -210 1z m230 -415 c212 -56 365 -251 365 -467 0
-301 -278 -541 -568 -489 -190 34 -348 180 -397 366 -66 254 92 521 348 590
70 18 179 18 252 0z"/>
</g>
</svg>
